<svg width="1400" height="370" viewBox="0 0 1400 370" fill="none" xmlns="http://www.w3.org/2000/svg">
  <g clip-path="url(#clip0_1215_3145)">
    <rect width="1400" height="370" fill="white"/>
    <path d="M811 -232C723.986 -128.222 616.4 -42.321 529.341 61.77C519.435 73.6138 509.395 86.5749 507.521 101.949C505.067 121.793 516.713 140.475 519.881 160.274C524.031 185.794 513.5 211.985 497.392 232.231C481.238 252.477 459.909 267.762 438.847 282.779C351.475 345.171 264.015 407.608 176.599 470H-94.2161C-106.443 470 -116.751 460.614 -117.598 448.413C-117.955 443.631 -117.955 438.893 -117.598 435.005L-117.375 432.949L-118 240.41C-97.2951 224.275 -73.8235 210.286 -55.8852 198.621C-30.718 182.264 -2.65029 167.113 27.3362 168.14C41.5262 168.632 55.4484 172.789 69.6385 172.744C110.87 172.61 143.087 138.643 169.95 107.313C176.287 99.8936 182.891 91.9381 184.23 82.2843C185.434 73.5244 182.088 64.8092 180.749 56.0493C175.394 21.9035 199.847 -8.97968 222.873 -34.7231C282.355 -101.272 342.729 -167.06 403.952 -232H811Z" fill="#F2F8F6"/>
    <path d="M1400 99.3528C1400 99.3528 1398.74 453.781 1398.56 511.149L1398.86 513.915C1399.16 517.764 1399.28 521.973 1399.16 526.182C1398.62 545.606 1382.54 561 1363.15 561H746C753.681 553.664 761.903 547.109 768.504 541.817C803.551 513.795 836.917 484.149 867.522 451.256C901.489 414.694 932.274 375.126 959.159 333.033C966.12 322.149 973.022 310.483 973.922 297.614C975.122 280.295 965.46 264.119 963.72 246.921C958.559 195.747 1018.87 150.406 1051.28 119.437C1136.85 37.5954 1229.33 -39.0151 1321.33 -113.521C1342.75 -130.9 1366.57 -149.06 1394.12 -149C1395.8 -149 1397.54 -148.94 1399.22 -148.759L1400 99.3528Z" fill="#F2F8F6"/>
    <path d="M350 183.292V82.7083H393.979C398.554 82.7083 402.756 83.6528 406.584 85.5417C410.506 87.4306 413.867 89.9806 416.668 93.1917C419.563 96.4028 421.757 99.9917 423.251 103.958C424.838 107.925 425.632 111.986 425.632 116.142C425.632 120.392 424.885 124.5 423.391 128.467C421.99 132.339 419.936 135.739 417.228 138.667C414.521 141.594 411.346 143.861 407.704 145.467L430.394 183.292H409.105L388.656 149.575H369.328V183.292H350ZM369.328 132.433H393.558C395.986 132.433 398.134 131.725 400.001 130.308C401.869 128.797 403.363 126.814 404.483 124.358C405.604 121.903 406.164 119.164 406.164 116.142C406.164 112.931 405.51 110.144 404.203 107.783C402.896 105.328 401.215 103.392 399.161 101.975C397.2 100.558 395.052 99.85 392.718 99.85H369.328V132.433Z" fill="#CCE3DB"/>
    <path d="M485.036 184C477.753 184 471.123 182.583 465.147 179.75C459.265 176.917 454.176 173.092 449.881 168.275C445.679 163.364 442.411 157.886 440.077 151.842C437.742 145.703 436.575 139.422 436.575 133C436.575 126.294 437.789 119.919 440.217 113.875C442.738 107.736 446.146 102.306 450.441 97.5833C454.83 92.7667 459.965 88.9889 465.848 86.25C471.824 83.4167 478.36 82 485.456 82C492.646 82 499.182 83.4639 505.064 86.3917C511.04 89.3194 516.129 93.2389 520.331 98.15C524.533 103.061 527.801 108.539 530.135 114.583C532.469 120.628 533.636 126.861 533.636 133.283C533.636 139.894 532.423 146.269 529.995 152.408C527.567 158.453 524.159 163.883 519.77 168.7C515.475 173.422 510.34 177.153 504.364 179.892C498.481 182.631 492.039 184 485.036 184ZM456.184 133C456.184 137.344 456.837 141.547 458.144 145.608C459.452 149.669 461.319 153.306 463.747 156.517C466.268 159.633 469.302 162.136 472.851 164.025C476.492 165.819 480.601 166.717 485.176 166.717C489.844 166.717 494 165.772 497.641 163.883C501.283 161.9 504.317 159.303 506.745 156.092C509.173 152.786 510.993 149.15 512.207 145.183C513.514 141.122 514.168 137.061 514.168 133C514.168 128.656 513.468 124.5 512.067 120.533C510.76 116.472 508.846 112.883 506.325 109.767C503.897 106.556 500.862 104.053 497.221 102.258C493.673 100.369 489.658 99.425 485.176 99.425C480.414 99.425 476.212 100.417 472.57 102.4C469.022 104.289 466.034 106.839 463.607 110.05C461.179 113.261 459.312 116.85 458.004 120.817C456.79 124.783 456.184 128.844 456.184 133Z" fill="#CCE3DB"/>
    <path d="M589.78 184C583.338 184 577.222 182.678 571.433 180.033C565.737 177.389 560.695 173.753 556.306 169.125C552.011 164.403 548.65 158.925 546.222 152.692C543.794 146.458 542.58 139.706 542.58 132.433C542.58 125.539 543.794 119.069 546.222 113.025C548.65 106.886 552.058 101.503 556.446 96.875C560.835 92.2472 565.97 88.6111 571.853 85.9667C577.735 83.3222 584.131 82 591.041 82C600.378 82 608.362 84.0306 614.991 88.0917C621.714 92.0583 626.756 97.3472 630.118 103.958L615.691 114.725C613.17 109.719 609.622 105.894 605.047 103.25C600.565 100.606 595.663 99.2833 590.341 99.2833C586.139 99.2833 582.311 100.181 578.856 101.975C575.401 103.769 572.413 106.225 569.892 109.342C567.371 112.458 565.41 116.047 564.01 120.108C562.702 124.169 562.049 128.467 562.049 133C562.049 137.817 562.749 142.256 564.15 146.317C565.644 150.378 567.698 153.919 570.312 156.942C573.02 159.964 576.148 162.372 579.696 164.167C583.244 165.867 587.166 166.717 591.461 166.717C596.503 166.717 601.312 165.394 605.887 162.75C610.556 160.106 614.898 156.233 618.913 151.133V170.4C610.603 179.467 600.892 184 589.78 184ZM617.512 145.892H597.484V131.583H633.479V183.292H617.512V145.892Z" fill="#CCE3DB"/>
    <path d="M692.389 184C685.106 184 678.477 182.583 672.501 179.75C666.618 176.917 661.529 173.092 657.234 168.275C653.033 163.364 649.764 157.886 647.43 151.842C645.096 145.703 643.929 139.422 643.929 133C643.929 126.294 645.143 119.919 647.57 113.875C650.091 107.736 653.499 102.306 657.795 97.5833C662.183 92.7667 667.319 88.9889 673.201 86.25C679.177 83.4167 685.713 82 692.809 82C699.999 82 706.535 83.4639 712.418 86.3917C718.394 89.3194 723.482 93.2389 727.684 98.15C731.886 103.061 735.154 108.539 737.488 114.583C739.823 120.628 740.99 126.861 740.99 133.283C740.99 139.894 739.776 146.269 737.348 152.408C734.921 158.453 731.512 163.883 727.124 168.7C722.829 173.422 717.693 177.153 711.717 179.892C705.835 182.631 699.392 184 692.389 184ZM663.537 133C663.537 137.344 664.191 141.547 665.498 145.608C666.805 149.669 668.672 153.306 671.1 156.517C673.621 159.633 676.656 162.136 680.204 164.025C683.846 165.819 687.954 166.717 692.529 166.717C697.198 166.717 701.353 165.772 704.995 163.883C708.636 161.9 711.671 159.303 714.098 156.092C716.526 152.786 718.347 149.15 719.561 145.183C720.868 141.122 721.522 137.061 721.522 133C721.522 128.656 720.821 124.5 719.421 120.533C718.113 116.472 716.199 112.883 713.678 109.767C711.251 106.556 708.216 104.053 704.574 102.258C701.026 100.369 697.011 99.425 692.529 99.425C687.767 99.425 683.565 100.417 679.924 102.4C676.376 104.289 673.388 106.839 670.96 110.05C668.532 113.261 666.665 116.85 665.358 120.817C664.144 124.783 663.537 128.844 663.537 133Z" fill="#CCE3DB"/>
    <path d="M755.816 183.292V82.7083H799.795C804.37 82.7083 808.572 83.6528 812.4 85.5417C816.322 87.4306 819.683 89.9806 822.485 93.1917C825.379 96.4028 827.573 99.9917 829.067 103.958C830.655 107.925 831.448 111.986 831.448 116.142C831.448 120.392 830.701 124.5 829.207 128.467C827.807 132.339 825.753 135.739 823.045 138.667C820.337 141.594 817.162 143.861 813.521 145.467L836.21 183.292H814.921L794.473 149.575H775.145V183.292H755.816ZM775.145 132.433H799.375C801.803 132.433 803.95 131.725 805.818 130.308C807.685 128.797 809.179 126.814 810.299 124.358C811.42 121.903 811.98 119.164 811.98 116.142C811.98 112.931 811.327 110.144 810.019 107.783C808.712 105.328 807.031 103.392 804.977 101.975C803.016 100.558 800.869 99.85 798.534 99.85H775.145V132.433Z" fill="#CCE3DB"/>
    <path d="M846.72 183.292V162.892H862.127V183.292H846.72Z" fill="#CCE3DB"/>
    <path d="M920.78 184C914.337 184 908.221 182.678 902.432 180.033C896.736 177.389 891.694 173.753 887.306 169.125C883.011 164.403 879.649 158.925 877.221 152.692C874.794 146.458 873.58 139.706 873.58 132.433C873.58 125.539 874.794 119.069 877.221 113.025C879.649 106.886 883.057 101.503 887.446 96.875C891.834 92.2472 896.97 88.6111 902.852 85.9667C908.735 83.3222 915.131 82 922.041 82C931.378 82 939.361 84.0306 945.991 88.0917C952.714 92.0583 957.756 97.3472 961.117 103.958L946.691 114.725C944.17 109.719 940.622 105.894 936.046 103.25C931.565 100.606 926.662 99.2833 921.34 99.2833C917.138 99.2833 913.31 100.181 909.855 101.975C906.401 103.769 903.413 106.225 900.892 109.342C898.37 112.458 896.41 116.047 895.009 120.108C893.702 124.169 893.048 128.467 893.048 133C893.048 137.817 893.749 142.256 895.149 146.317C896.643 150.378 898.697 153.919 901.312 156.942C904.02 159.964 907.148 162.372 910.696 164.167C914.244 165.867 918.166 166.717 922.461 166.717C927.503 166.717 932.312 165.394 936.887 162.75C941.555 160.106 945.897 156.233 949.912 151.133V170.4C941.602 179.467 931.891 184 920.78 184ZM948.512 145.892H928.483V131.583H964.479V183.292H948.512V145.892Z" fill="#CCE3DB"/>
    <path d="M1050 166.15V183.292H980.951V82.7083H1048.74V99.85H1000.28V124.075H1042.16V139.942H1000.28V166.15H1050Z" fill="#CCE3DB"/>
  </g>
  <defs>
    <clipPath id="clip0_1215_3145">
      <rect width="1400" height="370" fill="white"/>
    </clipPath>
  </defs>
</svg>
